<?xml version="1.0" standalone="no"?>
<!DOCTYPE svg PUBLIC "-//W3C//DTD SVG 20010904//EN"
 "http://www.w3.org/TR/2001/REC-SVG-20010904/DTD/svg10.dtd">
<svg version="1.0" xmlns="http://www.w3.org/2000/svg"
 width="959.000000pt" height="959.000000pt" viewBox="0 0 959.000000 959.000000"
 preserveAspectRatio="xMidYMid meet">
<metadata>
Created by potrace 1.14, written by Peter Selinger 2001-2017
</metadata>
<g transform="translate(0.000000,959.000000) scale(0.100000,-0.100000)"
fill="#000000" stroke="none">
<path d="M8970 8529 c-19 -5 -48 -11 -65 -14 -16 -3 -48 -11 -70 -16 -22 -6
-47 -13 -56 -14 -43 -8 -223 -48 -299 -66 -158 -37 -205 -48 -230 -53 -23 -4
-206 -43 -240 -51 -18 -4 -599 -135 -620 -140 -8 -2 -60 -13 -114 -25 -55 -12
-110 -26 -122 -30 -46 -18 -60 -59 -79 -245 -12 -114 -15 -140 -30 -260 -55
-445 -68 -575 -56 -594 6 -9 21 -11 47 -8 52 8 173 27 204 33 14 2 41 7 60 10
19 2 46 7 60 9 14 3 43 8 65 11 22 3 117 18 210 34 94 16 188 31 210 35 22 3
94 15 160 26 66 11 134 22 150 25 17 2 55 9 85 14 30 5 71 11 90 14 19 3 44 7
55 10 11 2 41 6 66 10 25 4 57 9 70 11 13 2 95 16 181 30 87 14 165 28 173 31
9 4 22 18 30 33 12 24 37 204 49 362 3 30 7 77 11 105 11 95 15 130 20 189 3
33 8 74 10 90 2 17 7 64 11 105 3 41 8 84 10 95 2 11 7 65 10 120 8 115 2 127
-56 114z m-185 -226 c8 -32 11 -61 7 -64 -8 -8 -153 -41 -157 -37 -2 2 -10 31
-18 66 -14 61 -14 62 7 67 96 23 141 32 144 30 2 -2 9 -29 17 -62z m-343 -58
c4 -22 10 -50 13 -62 4 -17 -1 -23 -25 -28 -16 -4 -32 -7 -35 -7 -2 0 -27 -6
-54 -13 l-49 -13 -6 37 c-3 20 -5 38 -5 41 0 3 -4 17 -10 33 -9 22 -8 27 4 27
18 0 20 0 70 16 67 22 88 15 97 -31z m-336 -91 c7 -32 13 -61 13 -64 1 -3 -7
-7 -16 -8 -10 -1 -47 -8 -83 -16 -36 -8 -66 -13 -67 -12 -5 4 -26 126 -22 130
2 2 20 7 39 10 19 4 51 10 70 15 19 5 39 8 44 7 5 -1 15 -29 22 -62z m-340
-74 c8 -35 13 -64 12 -65 -4 -3 -148 -35 -158 -35 -10 0 -34 119 -26 127 4 4
17 8 29 10 12 2 45 9 72 16 28 7 51 12 53 11 2 -1 10 -30 18 -64z m-338 -75
c7 -32 9 -62 5 -66 -8 -7 -45 -16 -119 -26 l-41 -5 -12 62 c-7 34 -11 63 -9
65 6 5 143 33 153 31 5 -2 16 -29 23 -61z"/>
<path d="M6855 8050 c-63 -16 -412 -96 -460 -106 -64 -13 -77 -18 -95 -41 -19
-25 -29 -90 -11 -79 5 3 26 8 47 12 22 3 43 7 48 7 11 2 33 -68 32 -103 -1
-22 -8 -26 -75 -42 -80 -18 -90 -27 -92 -73 0 -16 -2 -39 -4 -50 -2 -11 -7
-49 -11 -85 -3 -36 -8 -72 -9 -80 -1 -8 -6 -44 -10 -80 -4 -36 -9 -72 -10 -80
-2 -8 -6 -44 -10 -80 -4 -36 -9 -73 -10 -82 -6 -31 -18 -153 -17 -171 1 -28
21 -46 45 -41 26 5 256 43 307 50 19 3 71 11 115 19 44 8 100 17 125 20 81 12
93 26 105 131 4 32 9 70 11 84 2 14 6 53 9 86 3 34 7 70 9 80 2 11 7 48 11 84
3 36 8 76 10 90 2 14 7 50 10 80 4 30 10 84 15 120 14 94 13 107 -9 113 -14 3
-21 18 -27 58 -11 74 -12 72 14 76 45 6 60 20 55 50 -5 26 -29 55 -42 52 -3
-1 -37 -10 -76 -19z m-106 -192 c6 -34 9 -63 7 -66 -6 -6 -119 -31 -141 -32
-18 0 -23 10 -34 61 -7 34 -11 62 -9 64 5 4 131 33 149 34 13 1 19 -14 28 -61z"/>
<path d="M2568 7955 c-2 -2 -23 -5 -48 -8 -121 -12 -268 -71 -375 -150 -112
-82 -219 -225 -269 -359 -25 -66 -30 -85 -45 -180 -7 -43 -6 -193 2 -228 2 -8
7 -33 12 -55 24 -125 113 -282 214 -382 225 -222 545 -289 849 -179 203 73
384 258 461 471 38 106 46 160 45 295 -5 415 -339 755 -760 774 -46 2 -85 2
-86 1z m141 -186 c76 -55 92 -151 37 -224 -51 -66 -130 -82 -203 -40 -110 65
-104 224 11 276 61 28 106 24 155 -12z m-375 -263 c63 -48 76 -150 28 -215
-92 -125 -287 -58 -284 97 2 63 36 112 102 144 33 16 118 2 154 -26z m764 7
c55 -41 82 -124 60 -183 -12 -34 -65 -87 -97 -98 -38 -13 -96 -7 -132 14 -110
65 -101 233 16 285 33 15 123 4 153 -18z m-769 -452 c86 -61 85 -189 -1 -254
-43 -32 -80 -40 -128 -27 -77 21 -133 100 -123 175 6 43 45 99 84 119 46 23
126 17 168 -13z m771 -1 c18 -13 40 -41 50 -63 61 -135 -80 -271 -211 -204
-55 28 -80 63 -86 121 -9 74 25 133 97 168 30 15 116 2 150 -22z m-420 -238
c83 -33 120 -125 85 -208 -17 -42 -31 -56 -75 -79 -153 -79 -306 130 -181 249
50 48 113 62 171 38z"/>
<path d="M6019 7866 c-2 -3 -16 -7 -29 -10 -21 -4 -307 -69 -362 -82 -40 -9
-58 -13 -178 -38 -163 -34 -175 -40 -198 -89 -11 -23 -18 -44 -16 -46 2 -2 33
2 69 9 36 7 67 11 69 9 2 -2 10 -32 18 -65 l15 -62 -80 -17 c-86 -19 -97 -15
-97 32 0 49 -18 27 -45 -55 -16 -48 -64 -193 -107 -322 -44 -129 -81 -242 -83
-250 -2 -8 -66 -199 -143 -425 -77 -225 -168 -493 -202 -595 -34 -102 -68
-198 -75 -215 -7 -16 -19 -48 -26 -70 -12 -35 -15 94 -19 942 -4 739 -8 985
-17 994 -9 9 -33 7 -105 -11 -51 -12 -140 -32 -198 -45 -58 -12 -148 -33 -200
-45 -52 -12 -104 -23 -115 -26 -11 -2 -33 -7 -50 -11 -16 -4 -32 -7 -35 -8
-57 -12 -70 -40 -86 -195 -2 -25 -8 -70 -14 -100 -5 -30 -12 -77 -15 -105 -3
-27 -9 -63 -12 -80 -4 -16 -6 -33 -5 -36 0 -3 -6 -46 -14 -95 -8 -49 -16 -109
-19 -134 -2 -25 -11 -88 -19 -140 -8 -52 -18 -117 -21 -145 -3 -27 -10 -75
-15 -105 -5 -30 -12 -75 -15 -100 -6 -46 -14 -106 -20 -150 -2 -14 -7 -47 -11
-75 -10 -80 -21 -82 -55 -10 -11 24 -26 48 -33 54 -7 6 -45 5 -111 -4 -55 -8
-125 -17 -155 -21 -30 -3 -63 -8 -72 -9 -12 -3 -34 22 -73 81 -58 89 -53 85
-145 88 -19 1 -70 -4 -112 -10 -42 -7 -98 -15 -125 -18 -91 -12 -83 92 -83
-1101 0 -1185 -8 -1079 79 -1082 246 -8 353 -6 362 8 11 17 10 -18 11 772 0
391 4 654 11 678 20 79 92 124 130 81 34 -37 40 -76 41 -271 2 -229 -1 -223
107 -214 73 6 69 8 72 -39 1 -11 -23 -189 -28 -208 -1 -3 -5 -30 -9 -60 -5
-30 -10 -64 -12 -75 -3 -11 -6 -34 -8 -50 -13 -92 -43 -294 -51 -335 -3 -14
-7 -47 -11 -75 -3 -27 -12 -82 -18 -120 -14 -83 -12 -95 19 -95 21 0 22 -3 20
-57 -2 -32 -3 -63 -4 -70 -1 -8 -13 -11 -35 -8 -33 5 -35 3 -41 -36 -4 -22 -4
-43 -1 -46 4 -5 523 -8 612 -4 15 1 23 9 26 25 6 30 -1 43 -26 47 -18 4 -20
11 -17 64 1 33 5 62 7 65 3 2 17 4 31 5 30 0 37 17 48 118 4 34 8 64 10 67 2
3 7 33 10 65 4 33 9 62 10 65 2 3 8 42 14 86 7 44 13 90 15 101 3 11 7 36 9
54 10 63 21 134 22 139 2 8 18 114 20 125 11 100 19 146 24 149 3 2 7 -39 8
-92 0 -54 4 -209 8 -347 4 -137 8 -344 10 -460 2 -115 4 -222 4 -236 1 -41 23
-61 69 -65 95 -6 311 -17 373 -17 111 -2 128 19 175 212 39 158 120 456 171
631 82 284 175 585 184 600 9 14 5 -60 -5 -116 -2 -11 -7 -44 -11 -74 -4 -30
-8 -68 -11 -85 -2 -16 -10 -79 -19 -140 -18 -130 -21 -154 -30 -220 -4 -27 -9
-61 -11 -75 -2 -14 -6 -50 -10 -80 -3 -30 -7 -62 -10 -70 -2 -8 -6 -35 -9 -60
-3 -25 -14 -105 -24 -177 l-18 -133 56 -2 c31 0 62 -1 69 -1 8 1 12 -19 12
-68 l0 -69 -80 0 c-77 0 -80 -1 -80 -23 0 -50 15 -56 165 -61 571 -22 555 -23
570 37 7 27 7 27 -44 27 -28 0 -51 5 -52 10 -1 6 -1 19 -1 30 0 11 0 38 1 60
l1 40 55 -3 c31 -2 57 -1 59 2 2 3 11 65 21 136 9 72 18 141 20 155 2 14 6 50
10 80 4 30 9 68 11 84 3 15 7 49 9 75 2 25 6 60 9 76 3 17 17 122 31 235 14
113 27 223 30 245 3 22 8 56 10 75 2 19 9 73 15 120 15 117 20 159 25 203 11
82 15 115 25 197 15 117 20 159 25 203 3 20 7 54 10 75 2 20 7 57 10 82 3 25
8 61 10 80 8 65 15 125 20 160 3 19 7 54 10 78 3 23 7 61 10 85 3 23 7 58 10
77 2 19 7 60 10 90 4 30 8 62 10 70 2 8 7 48 10 89 3 41 8 77 9 80 2 3 7 36
10 73 4 37 9 77 11 90 5 35 16 125 31 253 3 28 7 57 9 65 2 8 6 46 10 83 3 37
8 76 10 85 1 9 6 46 10 82 4 36 9 74 11 84 2 11 6 51 9 89 3 39 8 74 11 79 7
12 -13 10 -76 -7 -60 -16 -101 -19 -98 -7 1 4 -4 31 -10 61 -7 30 -11 55 -10
57 5 4 138 34 152 34 8 0 18 -24 25 -61 7 -34 14 -59 16 -57 4 3 17 105 20
153 3 54 -4 65 -44 65 -21 0 -40 -2 -42 -4z m-290 -227 c7 -34 9 -65 4 -70
-11 -11 -147 -38 -155 -30 -3 3 -8 22 -11 41 -3 19 -8 46 -11 60 -7 25 -5 26
66 42 40 8 78 16 84 17 6 0 17 -27 23 -60z m-1366 -256 c6 -20 21 -94 21 -105
1 -5 -3 -9 -9 -10 -5 -1 -42 -9 -82 -18 l-72 -17 -6 26 c-4 14 -9 40 -12 56
-2 17 -6 35 -8 41 -3 12 24 20 95 31 19 3 37 7 39 9 11 10 30 2 34 -13z m-332
-113 c6 -33 12 -63 12 -67 0 -5 -35 -16 -78 -26 -84 -20 -95 -16 -95 30 0 12
-5 34 -10 49 -6 15 -8 29 -6 32 4 4 132 37 158 41 4 1 12 -26 19 -59z m-1151
-1353 c10 -47 1 -52 -97 -62 -58 -5 -73 -4 -74 7 -3 24 -6 53 -12 84 -5 35 -1
38 108 50 27 4 52 8 55 11 3 3 6 -8 8 -24 2 -15 7 -45 12 -66z m25 -1899 l0
-67 -87 2 c-52 1 -88 6 -89 12 -1 12 -1 94 0 113 1 10 23 12 88 10 l87 -3 1
-67z m721 -162 c9 -4 11 -51 5 -122 -1 -12 -147 -11 -159 1 -6 5 -3 115 3 125
4 6 133 3 151 -4z m669 -80 c-1 -33 -3 -64 -4 -67 0 -3 -37 -6 -81 -5 l-80 0
0 69 0 68 84 -2 84 -2 -3 -61z m286 35 c2 -18 1 -102 0 -113 -1 -4 -37 -6 -81
-6 -82 0 -82 1 -82 43 0 8 0 33 1 55 l1 40 80 -1 c66 -1 80 -4 81 -18z m751
-71 c-4 -68 -8 -83 -21 -75 -5 2 -39 5 -77 6 l-69 1 1 47 c3 99 -6 90 87 88
l82 -2 -3 -65z"/>
<path d="M1055 7219 c-341 -39 -566 -363 -483 -693 79 -312 410 -493 714 -391
140 47 261 149 322 271 31 61 58 170 61 241 9 237 -147 464 -371 543 -72 25
-170 37 -243 29z m108 -120 c58 -26 75 -116 31 -168 -71 -85 -208 -21 -189 90
12 71 89 109 158 78z m-247 -203 c27 -27 34 -42 34 -74 0 -110 -144 -151 -201
-58 -23 37 -24 67 -4 106 21 40 53 60 98 60 31 0 46 -7 73 -34z m540 0 c27
-27 34 -42 34 -74 0 -110 -144 -151 -201 -58 -23 37 -24 67 -4 106 21 40 53
60 98 60 31 0 46 -7 73 -34z m-579 -288 c84 -25 100 -145 27 -193 -43 -28 -99
-24 -134 10 -55 53 -47 138 16 176 31 19 49 20 91 7z m561 -7 c48 -26 66 -96
38 -150 -37 -71 -148 -71 -189 -2 -57 97 51 205 151 152z m-261 -186 c41 -27
55 -95 30 -144 -18 -35 -75 -61 -114 -53 -74 16 -110 88 -78 155 28 61 104 80
162 42z"/>
<path d="M7940 6815 c-41 -7 -97 -16 -125 -19 -27 -4 -61 -9 -75 -11 -14 -2
-47 -6 -73 -10 -27 -4 -59 -8 -70 -11 -12 -2 -49 -7 -82 -10 -86 -9 -110 -35
-120 -132 -14 -125 -17 -149 -20 -172 -2 -14 -7 -54 -10 -90 -4 -36 -8 -72
-10 -80 -2 -9 -6 -51 -9 -95 -4 -43 -8 -81 -10 -84 -2 -3 -7 -40 -10 -81 -4
-41 -9 -82 -11 -90 -2 -8 -6 -46 -9 -85 -3 -38 -8 -79 -10 -90 -2 -11 -7 -51
-10 -90 -4 -38 -9 -81 -11 -95 -2 -14 -6 -52 -10 -85 -3 -33 -8 -71 -10 -85
-2 -14 -6 -50 -9 -80 -6 -52 -9 -77 -21 -175 -10 -84 -44 -383 -50 -440 -4
-33 -8 -71 -10 -85 -2 -14 -7 -52 -10 -85 -4 -33 -9 -73 -11 -90 -2 -16 -6
-55 -9 -85 -4 -30 -8 -66 -11 -80 -2 -14 -7 -54 -10 -88 -3 -35 -7 -71 -9 -80
-1 -10 -6 -48 -10 -87 -4 -38 -9 -78 -11 -87 -1 -9 -6 -48 -9 -85 -4 -37 -8
-75 -10 -83 -4 -16 -18 -144 -18 -170 0 -44 5 -58 20 -65 23 -8 113 -13 396
-20 126 -3 232 -6 235 -7 4 -1 17 1 29 6 29 10 43 62 58 221 3 33 8 76 11 95
3 19 7 58 9 85 3 28 7 66 9 85 6 46 15 122 21 190 6 57 13 123 20 175 2 17 6
57 10 90 4 33 8 70 10 83 2 12 7 57 10 100 3 42 8 84 10 92 2 8 7 47 11 85 3
39 8 78 9 87 2 9 6 52 10 95 3 43 8 85 10 93 2 8 7 47 11 85 3 39 8 77 9 86 2
9 6 52 10 95 4 43 9 81 10 84 2 3 6 46 10 95 4 50 9 92 10 95 2 3 6 37 10 75
3 39 8 81 10 95 2 14 7 57 11 95 3 39 8 77 9 85 2 8 6 49 10 90 4 41 9 82 10
91 2 9 6 52 10 95 4 43 9 86 10 94 2 8 6 49 10 90 4 41 8 77 10 80 5 10 19
175 19 240 l1 65 -50 2 c-27 0 -84 -5 -125 -12z m-570 -3146 l0 -70 -82 3 -83
3 -1 60 c0 33 3 65 7 70 4 6 40 9 83 7 l76 -4 0 -69z m339 -11 l-2 -69 -81 3
-81 3 -1 68 0 68 83 -3 83 -2 -1 -68z"/>
<path d="M9444 6792 c-28 -10 -73 -36 -100 -58 -231 -189 -512 -354 -684 -400
-8 -2 -77 -21 -153 -43 -76 -21 -165 -45 -198 -52 -48 -11 -68 -21 -94 -50
-33 -37 -36 -46 -50 -179 -12 -109 -22 -194 -30 -260 -5 -36 -11 -87 -20 -175
-3 -27 -8 -67 -10 -87 -3 -21 -7 -55 -10 -75 -2 -21 -7 -63 -10 -93 -4 -30 -8
-66 -10 -80 -3 -14 -7 -51 -10 -83 -4 -56 -12 -124 -20 -177 -2 -14 -7 -56
-11 -95 -3 -38 -8 -78 -9 -87 -2 -9 -7 -48 -10 -85 -4 -37 -9 -77 -11 -88 -7
-36 -18 -169 -18 -212 0 -45 20 -75 64 -98 14 -7 138 -47 275 -90 138 -42 284
-94 325 -115 122 -61 331 -194 452 -287 83 -63 140 -86 200 -81 67 7 89 30 93
99 2 30 6 95 9 144 4 50 9 119 11 155 3 36 7 101 10 145 3 44 8 109 10 145 3
36 7 97 9 135 3 39 8 115 12 170 3 55 7 120 9 145 2 25 6 92 9 150 4 58 8 125
11 150 3 25 7 90 10 145 3 55 7 125 10 155 2 30 7 100 10 155 3 55 7 127 10
160 3 33 7 95 10 138 9 138 15 231 20 292 2 33 7 105 10 160 3 55 8 125 10
156 18 232 18 236 -7 253 -29 20 -60 20 -124 -2z m30 -189 c-3 -49 -9 -91 -13
-95 -22 -24 -343 -184 -448 -224 -80 -30 -199 -61 -308 -80 -93 -16 -281 -28
-225 -14 130 32 166 43 260 75 58 20 164 65 235 100 125 61 392 230 465 294
19 16 36 30 38 31 1 0 0 -39 -4 -87z"/>
<path d="M6700 6599 c-25 -4 -65 -10 -90 -13 -25 -4 -56 -9 -70 -11 -14 -2
-41 -6 -60 -9 -19 -3 -82 -12 -140 -20 -58 -8 -121 -17 -141 -19 -81 -10 -89
-29 -114 -262 -6 -58 -13 -115 -20 -165 -3 -19 -7 -55 -10 -80 -3 -25 -8 -65
-10 -90 -3 -25 -8 -58 -10 -75 -3 -16 -7 -50 -10 -75 -3 -25 -7 -61 -10 -80
-2 -19 -7 -60 -10 -90 -4 -30 -8 -66 -10 -80 -2 -14 -8 -61 -14 -105 -9 -75
-13 -109 -26 -222 -3 -27 -8 -59 -10 -73 -3 -14 -7 -52 -11 -85 -3 -33 -8 -68
-10 -79 -2 -10 -6 -44 -9 -75 -4 -31 -8 -67 -10 -81 -3 -23 -10 -76 -20 -155
-2 -16 -9 -68 -15 -115 -10 -80 -13 -104 -25 -197 -5 -44 -10 -86 -25 -203 -6
-47 -13 -103 -16 -125 -8 -68 -16 -129 -20 -148 -2 -10 -6 -45 -9 -78 -4 -33
-8 -70 -11 -82 -10 -48 -6 -109 7 -123 11 -10 55 -15 169 -19 85 -2 226 -7
312 -10 149 -6 158 -5 177 14 12 12 21 29 22 39 0 9 2 24 4 33 1 8 6 42 9 75
4 32 9 70 11 84 2 14 6 52 10 85 3 33 8 74 10 90 10 68 25 194 30 250 4 33 8
71 10 85 2 14 7 52 10 85 3 33 8 71 10 85 3 14 7 48 10 75 3 28 8 67 10 88 13
97 15 116 20 167 3 30 8 66 10 80 2 14 6 50 10 80 4 30 8 66 10 80 2 14 7 50
10 80 11 113 17 165 20 182 2 9 7 48 10 85 4 37 9 76 11 86 2 10 8 64 14 120
6 56 13 113 15 127 2 14 7 52 10 85 4 33 8 71 10 85 2 14 7 52 10 85 4 33 8
71 10 85 2 14 7 52 10 85 3 33 8 71 10 85 2 14 7 54 10 90 4 36 9 73 10 82 10
51 16 151 11 171 -6 25 -20 27 -96 16z m-690 -2880 c0 -73 -3 -77 -60 -73 -19
1 -51 3 -71 3 l-36 1 2 63 c2 34 4 65 4 68 1 3 37 5 81 5 l80 -1 0 -66z m323
52 c14 -1 17 -11 17 -69 l0 -68 -74 2 c-41 1 -79 5 -84 8 -14 8 -9 116 6 125
6 4 35 6 64 5 29 -2 61 -3 71 -3z"/>
<path d="M2398 6025 c-2 -2 -34 -6 -73 -9 -38 -4 -81 -8 -95 -10 -14 -2 -53
-7 -87 -11 -73 -9 -90 -19 -97 -59 -7 -41 -3 -44 48 -36 25 4 50 4 55 1 5 -4
13 -34 17 -69 6 -56 5 -62 -12 -63 -21 -1 -58 -6 -89 -14 -20 -4 -20 -12 -20
-789 0 -756 -1 -785 -19 -805 -23 -25 -68 -27 -90 -5 -9 8 -16 18 -17 22 -1 4
-2 392 -3 862 -2 671 -5 860 -15 879 -13 23 -16 23 -90 17 -42 -3 -85 -8 -96
-10 -11 -2 -53 -7 -92 -11 -40 -4 -81 -8 -90 -10 -10 -2 -23 -4 -29 -4 -7 -1
-20 -13 -29 -28 -17 -25 -18 -84 -18 -907 1 -658 4 -892 13 -926 35 -129 247
-212 435 -171 28 6 67 19 88 28 34 15 38 15 55 0 15 -14 50 -17 220 -19 151
-2 205 1 214 10 10 10 13 217 13 960 1 521 0 952 -2 958 -3 7 -24 7 -68 0 -36
-5 -67 -7 -69 -5 -9 9 -17 127 -9 132 4 2 37 8 72 11 36 4 68 9 71 11 4 3 5
19 1 37 -6 31 -10 33 -49 34 -23 1 -43 0 -44 -1z m-593 -215 c3 -25 8 -55 11
-67 3 -18 0 -23 -18 -24 -13 0 -32 -2 -43 -4 -11 -2 -41 -7 -66 -10 l-46 -6
-7 48 c-4 26 -9 56 -11 66 -2 9 0 17 3 18 4 1 36 6 72 13 100 17 99 18 105
-34z m-57 -1772 l3 -67 -91 2 -90 1 0 69 0 68 88 -3 87 -3 3 -67z m322 63 c24
-1 25 -4 25 -63 0 -35 -3 -65 -7 -68 -4 -3 -45 -5 -90 -4 l-83 1 0 59 c0 33 3
64 6 69 4 6 34 9 66 8 32 -1 69 -2 83 -2z m367 -66 c0 -33 -3 -64 -7 -70 -5
-6 -43 -9 -89 -7 l-81 4 0 68 0 68 88 -2 87 -1 2 -60z"/>
<path d="M1300 5859 c-25 -4 -58 -10 -75 -13 -16 -3 -50 -7 -75 -10 -25 -3
-56 -8 -69 -11 -14 -2 -59 -9 -101 -15 -42 -6 -86 -12 -97 -14 -12 -3 -43 -7
-70 -11 -82 -11 -107 -15 -133 -20 -14 -2 -43 -7 -65 -10 -96 -12 -116 -18
-124 -33 -4 -10 -8 -371 -8 -804 l0 -788 56 -2 c31 0 67 0 81 1 25 2 25 0 23
-56 -1 -32 -2 -64 -2 -71 -1 -9 -22 -12 -78 -10 l-78 3 -1 -28 c-1 -26 17 -56
34 -58 4 0 107 -2 229 -4 l222 -4 9 28 c15 44 1 56 -70 57 -35 1 -68 3 -73 3
-6 1 -10 13 -9 29 1 15 2 45 3 67 l1 40 75 -3 c73 -3 75 -3 76 20 0 13 1 161
2 330 1 206 6 311 13 318 6 6 49 13 95 16 46 3 100 7 119 9 19 2 53 4 75 4 66
2 70 8 71 120 2 131 -5 143 -84 136 -31 -3 -91 -7 -132 -10 -41 -3 -85 -8 -98
-10 -13 -2 -31 4 -41 14 -16 16 -18 39 -17 234 1 238 3 244 62 252 16 2 47 6
69 9 74 9 150 19 165 22 8 1 30 3 48 3 36 1 72 31 72 60 0 20 -5 20 -97 5 -18
-3 -33 -1 -34 3 0 4 -2 17 -4 28 -2 11 -7 39 -10 63 -5 41 -5 42 22 43 15 0
37 2 48 5 11 2 32 5 48 6 31 3 37 28 11 49 -20 16 -28 17 -84 8z m-224 -147
c4 -26 7 -56 8 -67 0 -21 3 -20 -130 -38 l-41 -6 -10 65 c-5 36 -7 67 -4 69 3
1 31 6 61 10 30 4 56 8 57 9 1 1 13 2 26 4 22 1 26 -3 33 -46z m-363 -16 c3
-8 9 -39 12 -70 6 -49 5 -55 -12 -54 -14 0 -98 -9 -148 -16 -5 0 -10 8 -11 19
-1 11 -5 41 -9 67 l-7 46 58 7 c33 4 64 8 69 10 23 8 43 4 48 -9z"/>
<path d="M19 5510 c-12 -8 -14 -95 -15 -592 -1 -370 2 -588 9 -595 5 -7 16
-13 24 -13 23 0 334 242 344 267 14 36 10 665 -4 683 -14 18 -292 232 -323
248 -12 6 -26 7 -35 2z"/>
<path d="M3860 3480 c-1 -14 -3 -41 -6 -62 -6 -41 -5 -42 86 -53 30 -4 62 -9
70 -10 17 -3 156 -24 210 -31 19 -3 77 -12 128 -20 111 -17 211 -31 278 -40
27 -3 65 -9 84 -13 31 -7 25 -8 -45 -15 -44 -5 -91 -9 -105 -11 -14 -2 -54 -6
-90 -10 -36 -4 -76 -8 -90 -10 -14 -2 -54 -6 -90 -10 -36 -3 -73 -7 -84 -9
-13 -2 -46 -56 -110 -182 -51 -98 -157 -305 -235 -459 -155 -303 -273 -532
-468 -915 -69 -135 -145 -282 -170 -327 -24 -46 -40 -84 -36 -84 4 -1 86 -2
181 -3 l173 -1 88 155 c49 85 101 178 116 205 16 28 92 163 170 300 79 138
152 267 164 288 11 20 29 52 40 70 45 79 236 416 259 457 44 80 94 161 97 158
2 -2 6 -50 10 -108 3 -58 8 -116 10 -130 2 -14 6 -68 10 -120 3 -52 8 -111 10
-130 5 -43 14 -154 20 -235 2 -33 6 -89 9 -125 11 -127 16 -186 21 -250 3 -36
7 -87 9 -115 3 -27 7 -84 11 -125 5 -69 10 -123 20 -240 2 -25 7 -79 10 -120
4 -41 8 -77 10 -79 6 -5 287 -7 290 -1 2 3 6 39 9 80 4 41 9 93 11 115 2 22 7
76 10 120 3 44 8 100 10 125 2 25 6 79 10 120 6 79 10 132 20 240 3 36 8 92
10 125 5 76 14 185 20 250 3 28 8 86 11 130 3 44 7 90 9 102 2 11 7 72 10 135
4 62 9 120 11 128 1 8 3 34 3 58 1 23 5 42 10 42 5 0 72 -111 149 -247 77
-137 206 -365 287 -508 81 -143 159 -280 173 -305 138 -247 316 -556 323 -560
6 -4 327 -5 351 -1 4 0 -42 97 -101 214 -59 116 -215 423 -346 682 -131 259
-314 620 -407 804 -93 183 -168 335 -166 336 2 2 30 6 63 9 33 4 71 9 85 11
14 2 73 9 133 16 120 13 111 5 122 109 l6 56 -73 1 c-40 1 -165 4 -278 7 -113
3 -299 8 -415 11 -115 3 -284 7 -375 10 -153 4 -549 15 -683 18 -54 2 -57 1
-57 -23z"/>
</g>
</svg>
